<svg width="90" height="72" viewBox="0 0 90 72" fill="none" xmlns="http://www.w3.org/2000/svg">
<path d="M53.9894 12.3845C53.9293 11.8618 53.0282 11.6998 52.6567 12.1424C52.0871 12.8211 51.3734 13.735 50.6035 14.872C50.2273 15.4276 49.1935 15.4516 48.7749 14.9137C44.0813 8.88282 38.4618 0.645874 32.4216 0.645874C22.7983 0.645874 14.2417 15.4623 8.79902 26.9689C8.06102 28.5291 5.11714 28.5203 4.43985 26.9442C4.42961 26.9202 4.41938 26.8962 4.40914 26.872C4.12026 26.1819 2.80979 26.2154 2.56149 26.9146C0.312024 33.2488 -3.55109 48.8174 7.18996 60.7576C12.4557 67.1206 21.7843 71.3541 32.4217 71.3541C40.8983 71.3541 48.5416 68.6635 53.9638 64.3523C56.4131 62.1143 65.1803 55.8312 65.1803 42.1752C65.1801 24.5425 54.8391 19.7723 53.9894 12.3845Z" fill="url(#paint0_linear)"/>
<path d="M52.6567 12.1424C52.0871 12.8211 51.3734 13.735 50.6035 14.872C50.2272 15.4276 49.1935 15.4516 48.7749 14.9137C44.0813 8.88282 38.4618 0.645874 32.4215 0.645874C22.7982 0.645874 14.2415 15.4623 8.799 26.9689C8.061 28.5291 5.11712 28.5203 4.43982 26.9442C4.42959 26.9202 4.41935 26.8962 4.40929 26.872C4.12041 26.1819 2.80994 26.2154 2.56165 26.9146C0.311999 33.2488 -3.55112 48.8174 7.18994 60.7576C12.4556 67.1206 21.7842 71.3541 32.4217 71.3541C40.8983 71.3541 48.5416 68.6635 53.9638 64.3523C56.4131 62.1143 65.1803 55.8312 65.1803 42.1752C65.1803 24.5425 54.8393 19.7721 53.9896 12.3845C53.9294 11.862 53.0284 11.6998 52.6567 12.1424Z" fill="url(#paint1_linear)"/>
<path d="M60.06 6.95345C60.054 6.88339 59.9651 6.86169 59.9282 6.92098C59.8719 7.01186 59.8013 7.13433 59.7252 7.28663C59.688 7.3611 59.5858 7.36427 59.5445 7.29227C59.0806 6.48439 58.5251 5.38092 57.9281 5.38092C56.9767 5.38092 56.0432 7.31504 55.593 8.90733C54.4583 12.921 56.8767 14.8535 57.9281 14.8535C58.766 14.8535 59.5216 14.493 60.0575 13.9154C60.2997 13.6156 61.1663 12.7738 61.1663 10.9443C61.1661 8.58227 60.1438 7.94327 60.06 6.95345Z" fill="url(#paint2_linear)"/>
<path d="M32.6107 14.0822C22.0885 14.0822 13.5586 37.7638 13.5586 47.0783C13.5586 56.3927 22.0885 63.9437 32.6107 63.9437C43.133 63.9437 51.6628 56.3929 51.6628 47.0783C51.6628 37.7636 43.133 14.0822 32.6107 14.0822Z" fill="url(#paint3_linear)"/>
<path d="M46.4498 51.6932C46.4498 58.4589 40.2541 63.9436 32.6111 63.9436C24.9682 63.9436 18.7725 58.4589 18.7725 51.6932C18.7725 44.9275 24.9682 27.7262 32.6111 27.7262C40.2541 27.7262 46.4498 44.9277 46.4498 51.6932Z" fill="url(#paint4_linear)"/>
<path d="M6.72166 19.3306C5.58908 19.3306 4.6709 22.7352 4.6709 24.0745C4.6709 25.4137 5.58908 26.4992 6.72166 26.4992C7.85425 26.4992 8.77243 25.4135 8.77243 24.0745C8.77243 22.7354 7.85425 19.3306 6.72166 19.3306Z" fill="url(#paint5_linear)"/>
<path d="M52.8179 10.1173C54.0668 10.1173 55.0792 9.10484 55.0792 7.85596C55.0792 6.60708 54.0668 5.59467 52.8179 5.59467C51.5691 5.59467 50.5566 6.60708 50.5566 7.85596C50.5566 9.10484 51.5691 10.1173 52.8179 10.1173Z" fill="url(#paint6_linear)"/>
<path d="M36.6435 39.3328L30.6575 56.0779L30.3907 60.9247C30.0217 61.9572 35.2702 60.6909 35.2702 60.6909L52.0154 54.7048C56.2729 50.4473 40.9009 35.0753 36.6435 39.3328Z" fill="url(#paint7_linear)"/>
<path d="M89.1314 17.5909L52.0147 54.7046C51.5938 53.9753 50.9543 53.3299 50.1349 52.8727C49.0156 52.2528 47.265 52.5921 46.053 52.9597C45.7893 53.0382 45.5479 52.9008 45.4498 52.6904C45.388 52.5642 45.3769 52.4098 45.4441 52.2584C45.447 52.2584 45.447 52.2556 45.447 52.2556C45.5144 52.1013 45.5733 51.9441 45.6238 51.787C45.6462 51.7113 45.6686 51.6356 45.6912 51.5598C45.694 51.5541 45.694 51.5513 45.694 51.5458C45.7586 51.3018 45.8034 51.0577 45.8287 50.808C45.8371 50.7266 45.8428 50.6425 45.8483 50.5611C45.8553 50.4256 45.8566 50.2901 45.8521 50.1545C45.8214 49.206 45.5116 48.2642 44.9225 47.4639C44.7794 47.2675 44.6195 47.0823 44.4429 46.9055C44.266 46.7287 44.0809 46.5688 43.8845 46.4257C42.9698 45.7523 41.8701 45.4438 40.7873 45.4999C40.7059 45.5056 40.6217 45.5112 40.5404 45.5195C40.2907 45.5448 40.0438 45.5896 39.8026 45.6542C39.7969 45.6542 39.7941 45.6542 39.7884 45.657C39.7127 45.6794 39.6368 45.7018 39.5611 45.7244C39.4798 45.7496 39.4013 45.7777 39.3227 45.8086C39.247 45.8366 39.1711 45.8675 39.0954 45.9012C39.0926 45.9012 39.0926 45.9012 39.0898 45.904C38.9382 45.9715 38.784 45.9602 38.6578 45.8984C38.4474 45.8003 38.31 45.5589 38.3885 45.2952C38.7561 44.0832 39.0954 42.3355 38.4755 41.2161C38.0181 40.3941 37.3757 39.7544 36.6436 39.3337L73.7573 2.21681C74.9188 1.0581 76.7984 1.0581 77.9571 2.21681L80.1481 4.40787L86.9401 11.2L89.1312 13.3911C90.2899 14.5496 90.2899 16.4294 89.1314 17.5909Z" fill="url(#paint8_linear)"/>
<path d="M86.9399 11.1998L45.4494 52.6904C45.3876 52.5642 45.3765 52.4098 45.4438 52.2584C45.4466 52.2584 45.4466 52.2555 45.4466 52.2555C45.514 52.1013 45.8057 51.0548 45.8281 50.808C45.8394 50.7238 45.8449 50.6424 45.8477 50.5611C45.9038 49.4781 45.5952 48.3785 44.9219 47.4638C44.7788 47.2674 44.6189 47.0823 44.4423 46.9055C44.2655 46.7287 44.0803 46.5688 43.8839 46.4257C42.9693 45.7523 41.8695 45.4438 40.7867 45.4999C40.7053 45.5027 40.624 45.5084 40.5398 45.5195C40.2929 45.5419 40.0461 45.5869 39.802 45.6541C39.7963 45.6541 39.7935 45.6541 39.7879 45.657C39.7122 45.6765 39.1708 45.8673 39.0949 45.901C39.092 45.901 39.092 45.901 39.0892 45.9038C38.9376 45.9713 38.7834 45.96 38.6572 45.8982L80.1478 4.40784L86.9399 11.1998Z" fill="url(#paint9_linear)"/>
<path d="M33.3217 58.0258C32.5141 57.2183 31.6115 56.5703 30.6566 56.0779L29.014 60.6729C28.6448 61.7054 29.6421 62.7025 30.6746 62.3335L35.2695 60.6909C34.7774 59.7358 34.1294 58.8334 33.3217 58.0258Z" fill="url(#paint10_linear)"/>
<defs>
<linearGradient id="paint0_linear" x1="38.4604" y1="42.7639" x2="58.0476" y2="57.3221" gradientUnits="userSpaceOnUse">
<stop stop-color="#FF9356" stop-opacity="0"/>
<stop offset="1" stop-color="#FF755C"/>
</linearGradient>
<linearGradient id="paint1_linear" x1="11.1259" y1="13.3212" x2="50.1801" y2="59.8798" gradientUnits="userSpaceOnUse">
<stop stop-color="#FF755C"/>
<stop offset="1" stop-color="#FF4181"/>
</linearGradient>
<linearGradient id="paint2_linear" x1="55.2967" y1="10.1172" x2="61.1661" y2="10.1172" gradientUnits="userSpaceOnUse">
<stop stop-color="#FF755C"/>
<stop offset="1" stop-color="#FF4181"/>
</linearGradient>
<linearGradient id="paint3_linear" x1="36.9136" y1="48.5462" x2="6.2093" y2="6.98944" gradientUnits="userSpaceOnUse">
<stop stop-color="#FF755C" stop-opacity="0"/>
<stop offset="1" stop-color="#FFCE47"/>
</linearGradient>
<linearGradient id="paint4_linear" x1="27.3343" y1="37.8346" x2="39.3343" y2="66.0699" gradientUnits="userSpaceOnUse">
<stop stop-color="#843561" stop-opacity="0"/>
<stop offset="1" stop-color="#3A2F4D"/>
</linearGradient>
<linearGradient id="paint5_linear" x1="4.6709" y1="22.9149" x2="8.77243" y2="22.9149" gradientUnits="userSpaceOnUse">
<stop stop-color="#FF755C"/>
<stop offset="1" stop-color="#FF4181"/>
</linearGradient>
<linearGradient id="paint6_linear" x1="50.5566" y1="7.85596" x2="55.0792" y2="7.85596" gradientUnits="userSpaceOnUse">
<stop stop-color="#FF755C"/>
<stop offset="1" stop-color="#FF4181"/>
</linearGradient>
<linearGradient id="paint7_linear" x1="31.2636" y1="44.7169" x2="46.6333" y2="60.0867" gradientUnits="userSpaceOnUse">
<stop stop-color="#FFE0EA"/>
<stop offset="1" stop-color="#FFC0D5"/>
</linearGradient>
<linearGradient id="paint8_linear" x1="36.6434" y1="28.0262" x2="90.0003" y2="28.0262" gradientUnits="userSpaceOnUse">
<stop stop-color="#FFCE47"/>
<stop offset="1" stop-color="#FF9356"/>
</linearGradient>
<linearGradient id="paint9_linear" x1="69.1768" y1="34.9272" x2="53.6588" y2="19.4093" gradientUnits="userSpaceOnUse">
<stop stop-color="#FFCE47"/>
<stop offset="1" stop-color="#FF9356"/>
</linearGradient>
<linearGradient id="paint10_linear" x1="30.8904" y1="59.5311" x2="34.8122" y2="63.4528" gradientUnits="userSpaceOnUse">
<stop stop-color="#2F73A0"/>
<stop offset="1" stop-color="#174461"/>
</linearGradient>
</defs>
</svg>
