<svg width="90" height="90" viewBox="0 0 90 90" fill="none" xmlns="http://www.w3.org/2000/svg">
<path d="M41.5302 25.4519C38.643 28.5253 38.643 33.3874 41.5302 36.4607C43.4142 38.4669 46.0642 39.2854 48.5749 38.9159C49.6646 38.7553 50.6366 39.6177 50.6366 40.7189V46.604C50.6366 48.8319 48.8308 50.6378 46.6028 50.6378H40.7177C39.6165 50.6378 38.7541 49.666 38.9147 48.5761C39.2841 46.0654 38.4658 43.4155 36.4595 41.5314C33.3862 38.6441 28.524 38.6441 25.4507 41.5314C23.4444 43.4154 22.6261 46.0652 22.9955 48.5761C23.1561 49.6658 22.2937 50.6378 21.1925 50.6378H15.3068C13.0789 50.6378 11.2731 48.8319 11.2731 46.604V40.7189C11.2731 39.6177 10.2998 38.7553 9.20996 38.9159C6.70072 39.2852 4.04943 38.4669 2.16543 36.4607C-0.721809 33.3872 -0.721809 28.5251 2.16543 25.4519C4.04943 23.4456 6.7009 22.6271 9.20996 22.9967C10.2998 23.1572 11.2731 22.2948 11.2731 21.1937V15.3084C11.2731 13.0804 13.0789 11.2746 15.3068 11.2746H21.192C22.2931 11.2746 23.1555 10.3014 22.995 9.21148C22.6256 6.70224 23.4439 4.05095 25.4502 2.16677C28.5234 -0.720466 33.3857 -0.720466 36.459 2.16677C38.4652 4.05095 39.2835 6.70224 38.9142 9.21148C38.7536 10.3012 39.616 11.2746 40.7172 11.2746H46.6023C48.8302 11.2746 50.6361 13.0804 50.6361 15.3084V21.1935C50.6361 22.2947 49.6642 23.1571 48.5744 22.9965C46.0643 22.6273 43.4142 23.4456 41.5302 25.4519Z" fill="url(#paint0_linear)"/>
<path d="M2.16574 36.4607C4.04974 38.467 6.70103 39.2853 9.21044 38.9159C10.3003 38.7553 11.2736 39.6177 11.2736 40.7189V46.604C11.2736 48.832 13.0794 50.6378 15.3073 50.6378H21.1924C22.2936 50.6378 23.156 49.666 22.9954 48.5761C22.6261 46.0654 23.4444 43.4155 25.4507 41.5314C28.5239 38.6441 33.3862 38.6441 36.4594 41.5314C38.4657 43.4154 39.284 46.0653 38.9147 48.5761C38.7541 49.6658 39.6165 50.6378 40.7177 50.6378H46.6028C48.8307 50.6378 50.6366 48.832 50.6366 46.604V40.7189C50.6366 39.6177 49.6647 38.7553 48.5749 38.9159C46.0642 39.2853 43.4143 38.467 41.5301 36.4607C40.6381 35.5111 40.0226 34.3907 39.6818 33.2051H0.317383C0.658324 34.3907 1.27385 35.5113 2.16574 36.4607Z" fill="url(#paint1_linear)"/>
<path d="M41.5302 64.8126C38.643 67.886 38.643 72.7481 41.5302 75.8214C43.4142 77.8277 46.0643 78.6461 48.5749 78.2766C49.6646 78.116 50.6366 78.9784 50.6366 80.0796V85.9647C50.6366 88.1927 48.8308 89.9985 46.6028 89.9985H40.7177C39.6165 89.9985 38.7541 89.0267 38.9147 87.9368C39.2841 85.4261 38.4658 82.7763 36.4595 80.8921C33.3863 78.0048 28.524 78.0048 25.4507 80.8921C23.4444 82.7761 22.6261 85.426 22.9955 87.9368C23.1561 89.0265 22.2937 89.9985 21.1925 89.9985H15.3068C13.0789 89.9985 11.2731 88.1927 11.2731 85.9647V80.0796C11.2731 78.9784 10.2998 78.116 9.20996 78.2766C6.70072 78.646 4.04943 77.8277 2.16543 75.8214C-0.721809 72.748 -0.721809 67.8858 2.16543 64.8126C4.04943 62.8063 6.7009 61.9878 9.20996 62.3574C10.2998 62.518 11.2731 61.6556 11.2731 60.5544V54.6693C11.2731 52.4413 13.0789 50.6355 15.3068 50.6355H21.192C22.2931 50.6355 23.1555 49.6623 22.995 48.5724C22.6256 46.0631 23.4439 43.4118 25.4502 41.5277C28.5234 38.6404 33.3857 38.6404 36.459 41.5277C38.4653 43.4118 39.2835 46.0631 38.9142 48.5724C38.7536 49.6621 39.616 50.6355 40.7172 50.6355H46.6023C48.8302 50.6355 50.6361 52.4413 50.6361 54.6693V60.5544C50.6361 61.6556 49.6643 62.518 48.5744 62.3574C46.0643 61.9878 43.4142 62.8063 41.5302 64.8126Z" fill="url(#paint2_linear)"/>
<path d="M80.8939 64.8126C78.0067 67.886 78.0067 72.7481 80.8939 75.8214C82.7779 77.8277 85.428 78.6461 87.9386 78.2766C89.0284 78.116 90.0004 78.9784 90.0004 80.0796V85.9647C90.0004 88.1927 88.1945 89.9985 85.9666 89.9985H80.0815C78.9803 89.9985 78.1179 89.0267 78.2785 87.9368C78.6478 85.4261 77.8295 82.7763 75.8232 80.8921C72.75 78.0048 67.8877 78.0048 64.8145 80.8921C62.8082 82.7761 61.9899 85.426 62.3592 87.9368C62.5198 89.0265 61.6574 89.9985 60.5562 89.9985H54.6711C52.4432 89.9985 50.6373 88.1927 50.6373 85.9647V80.0796C50.6373 78.9784 49.6641 78.116 48.5742 78.2766C46.065 78.646 43.4137 77.8277 41.5297 75.8214C38.6424 72.748 38.6424 67.8858 41.5297 64.8126C43.4137 62.8063 46.0652 61.9878 48.5742 62.3574C49.6641 62.518 50.6373 61.6556 50.6373 60.5544V54.6693C50.6373 52.4413 52.4432 50.6355 54.6711 50.6355H60.5562C61.6574 50.6355 62.5198 49.6623 62.3592 48.5724C61.9899 46.0631 62.8082 43.4118 64.8145 41.5277C67.8877 38.6404 72.75 38.6404 75.8232 41.5277C77.8295 43.4118 78.6478 46.0631 78.2785 48.5724C78.1179 49.6621 78.9803 50.6355 80.0815 50.6355H85.9666C88.1945 50.6355 90.0004 52.4413 90.0004 54.6693V60.5544C90.0004 61.6556 89.0285 62.518 87.9386 62.3574C85.4278 61.9878 82.7779 62.8063 80.8939 64.8126Z" fill="url(#paint3_linear)"/>
<path d="M48.5744 62.3572C49.6641 62.5178 50.6361 61.6554 50.6361 60.5542V54.6691C50.6361 52.4411 48.8303 50.6353 46.6023 50.6353H40.7172C39.616 50.6353 38.7536 49.6621 38.9142 48.5722C39.2835 46.063 38.4653 43.4117 36.459 41.5275C34.9318 40.093 32.9631 39.3719 30.9914 39.3629C30.354 41.0872 30.0068 42.991 30.0068 45.0301C30.0068 49.7343 31.2802 53.9561 34.5404 56.8529L42.0224 64.3351C43.86 62.6803 46.2746 62.0189 48.5744 62.3572Z" fill="url(#paint4_linear)"/>
<path d="M80.081 89.9987H85.9661C88.1941 89.9987 89.9999 88.1927 89.9999 85.9649V80.0798C89.9999 78.9786 89.0281 78.1162 87.9382 78.2768C85.4275 78.6461 82.7776 77.8278 80.8935 75.8215C78.0062 72.7483 78.0062 67.886 80.8935 64.8128C82.0033 63.631 83.3796 62.8647 84.8358 62.5072L64.3425 42.0133C62.6833 43.8521 62.0199 46.271 62.3588 48.5722C62.5193 49.6619 61.6569 50.6353 60.5558 50.6353H54.6706C52.4427 50.6353 50.6369 52.4411 50.6369 54.6691V60.5542C50.6369 61.6554 49.6636 62.5178 48.5738 62.3572C46.2758 62.0189 43.8602 62.68 42.0225 64.3344L62.5112 84.8233C62.8698 83.3711 63.6352 81.9992 64.814 80.8923C67.8872 78.005 72.7495 78.005 75.8228 80.8923C77.8291 82.7762 78.6475 85.4263 78.278 87.937C78.1174 89.0268 78.9798 89.9987 80.081 89.9987Z" fill="url(#paint5_linear)"/>
<path d="M45.0006 60.8142C53.7344 60.8142 60.8146 53.734 60.8146 45.0001C60.8146 36.2662 53.7344 29.186 45.0006 29.186C36.2667 29.186 29.1865 36.2662 29.1865 45.0001C29.1865 53.734 36.2667 60.8142 45.0006 60.8142Z" fill="url(#paint6_linear)"/>
<path d="M42.4205 52.5128C41.0485 52.5128 39.7585 51.9784 38.7884 51.0084L34.4204 46.6404C33.507 45.7271 33.507 44.2462 34.4204 43.3328C35.3336 42.4194 36.8146 42.4194 37.728 43.3328L42.096 47.7008C42.2072 47.812 42.3339 47.8353 42.4205 47.8353C42.5072 47.8353 42.6339 47.812 42.7451 47.7008L52.2734 38.1726C53.1868 37.2592 54.6676 37.2592 55.581 38.1726C56.4942 39.0858 56.4942 40.5668 55.581 41.4802L46.0528 51.0084C45.0824 51.9784 43.7926 52.5128 42.4205 52.5128Z" fill="white"/>
<path d="M2.16574 75.8214C4.04974 77.8277 6.70103 78.646 9.21044 78.2766C10.3003 78.116 11.2736 78.9784 11.2736 80.0796V85.9647C11.2736 88.1927 13.0794 89.9985 15.3073 89.9985H21.1924C22.2936 89.9985 23.156 89.0267 22.9954 87.9368C22.6261 85.4262 23.4444 82.7763 25.4507 80.8921C28.5239 78.0049 33.3862 78.0049 36.4594 80.8921C38.4657 82.7761 39.284 85.426 38.9147 87.9368C38.7541 89.0265 39.6165 89.9985 40.7177 89.9985H46.6028C48.8307 89.9985 50.6366 88.1927 50.6366 85.9647V80.0796C50.6366 78.9784 49.6647 78.116 48.5749 78.2766C46.0642 78.646 43.4143 77.8277 41.5301 75.8214C40.6381 74.8718 40.0226 73.7514 39.6818 72.5659H0.317383C0.658324 73.7514 1.27385 74.8718 2.16574 75.8214Z" fill="url(#paint7_linear)"/>
<path d="M41.2116 75.8214C43.0956 77.8277 45.7469 78.646 48.2563 78.2766C49.3462 78.116 50.3195 78.9784 50.3195 80.0796V85.9647C50.3195 88.1927 52.1253 89.9985 54.3532 89.9985H60.2383C61.3395 89.9985 62.2019 89.0267 62.0413 87.9368C61.672 85.4262 62.4903 82.7763 64.4966 80.8921C67.5698 78.0049 72.4321 78.0049 75.5053 80.8921C77.5116 82.7761 78.3299 85.426 77.9606 87.9368C77.8 89.0265 78.6624 89.9985 79.7636 89.9985H85.6487C87.8766 89.9985 89.6825 88.1927 89.6825 85.9647V80.0796C89.6825 78.9784 88.7106 78.116 87.6208 78.2766C85.1101 78.646 82.4602 77.8277 80.576 75.8214C79.684 74.8718 79.0685 73.7514 78.7277 72.5659H39.3633C39.704 73.7514 40.3196 74.8718 41.2116 75.8214Z" fill="url(#paint8_linear)"/>
<path d="M70.2052 19.795C68.8912 18.481 68.8912 16.3504 70.2052 15.0362L76.6557 8.58572C77.9697 7.27172 80.1003 7.27172 81.4144 8.58572C82.7284 9.89972 82.7284 12.0302 81.4144 13.3444L74.9639 19.795C73.6498 21.109 71.5192 21.109 70.2052 19.795Z" fill="url(#paint9_linear)"/>
<path d="M56.7233 18.3867C54.8649 18.3867 53.3584 16.8802 53.3584 15.0218V5.8993C53.3584 4.04089 54.8649 2.53436 56.7233 2.53436C58.5817 2.53436 60.0883 4.04089 60.0883 5.8993V15.0216C60.0883 16.8802 58.5817 18.3867 56.7233 18.3867Z" fill="url(#paint10_linear)"/>
<path d="M71.6123 33.2761C71.6123 31.4177 73.1188 29.9111 74.9773 29.9111H84.0996C85.958 29.9111 87.4645 31.4177 87.4645 33.2761C87.4645 35.1345 85.958 36.641 84.0996 36.641H74.9773C73.1188 36.641 71.6123 35.1345 71.6123 33.2761Z" fill="url(#paint11_linear)"/>
<defs>
<linearGradient id="paint0_linear" x1="16.3605" y1="16.3621" x2="39.9218" y2="39.9234" gradientUnits="userSpaceOnUse">
<stop stop-color="#7ACBFF"/>
<stop offset="1" stop-color="#45A2E0"/>
</linearGradient>
<linearGradient id="paint1_linear" x1="25.4772" y1="37.2355" x2="25.4772" y2="51.0398" gradientUnits="userSpaceOnUse">
<stop stop-color="#2F73A0" stop-opacity="0"/>
<stop offset="1" stop-color="#2F73A0"/>
</linearGradient>
<linearGradient id="paint2_linear" x1="16.3605" y1="55.7226" x2="39.9218" y2="79.2841" gradientUnits="userSpaceOnUse">
<stop stop-color="#FFCE47"/>
<stop offset="1" stop-color="#FF9356"/>
</linearGradient>
<linearGradient id="paint3_linear" x1="48.2908" y1="48.2893" x2="74.6629" y2="74.6614" gradientUnits="userSpaceOnUse">
<stop stop-color="#FF755C"/>
<stop offset="1" stop-color="#FF4181"/>
</linearGradient>
<linearGradient id="paint4_linear" x1="63.1757" y1="75.5282" x2="49.0177" y2="61.3702" gradientUnits="userSpaceOnUse">
<stop stop-color="#FF9356" stop-opacity="0"/>
<stop offset="1" stop-color="#FF755C"/>
</linearGradient>
<linearGradient id="paint5_linear" x1="66.2683" y1="66.2598" x2="43.7734" y2="43.7649" gradientUnits="userSpaceOnUse">
<stop stop-color="#843561" stop-opacity="0"/>
<stop offset="1" stop-color="#3A2F4D"/>
</linearGradient>
<linearGradient id="paint6_linear" x1="38.2206" y1="38.2201" x2="53.2598" y2="53.2593" gradientUnits="userSpaceOnUse">
<stop stop-color="#E4E08E"/>
<stop offset="1" stop-color="#6FA953"/>
</linearGradient>
<linearGradient id="paint7_linear" x1="25.4771" y1="76.9383" x2="25.4771" y2="87.7903" gradientUnits="userSpaceOnUse">
<stop stop-color="#FF9356" stop-opacity="0"/>
<stop offset="1" stop-color="#FF755C"/>
</linearGradient>
<linearGradient id="paint8_linear" x1="64.523" y1="80.9085" x2="64.523" y2="94.4488" gradientUnits="userSpaceOnUse">
<stop stop-color="#843561" stop-opacity="0"/>
<stop offset="1" stop-color="#3A2F4D"/>
</linearGradient>
<linearGradient id="paint9_linear" x1="76.1554" y1="14.6183" x2="73.8148" y2="12.2777" gradientUnits="userSpaceOnUse">
<stop stop-color="#6FA953"/>
<stop offset="1" stop-color="#43765A"/>
</linearGradient>
<linearGradient id="paint10_linear" x1="57.3147" y1="10.4607" x2="54.0041" y2="10.4607" gradientUnits="userSpaceOnUse">
<stop stop-color="#FFCE47"/>
<stop offset="1" stop-color="#FF9356"/>
</linearGradient>
<linearGradient id="paint11_linear" x1="79.5385" y1="33.8673" x2="79.5385" y2="30.5567" gradientUnits="userSpaceOnUse">
<stop stop-color="#7ACBFF"/>
<stop offset="1" stop-color="#45A2E0"/>
</linearGradient>
</defs>
</svg>
