<svg width="52" height="64" viewBox="0 0 52 64" fill="none" xmlns="http://www.w3.org/2000/svg">
<path d="M49.276 15.9477H48.2698C47.9551 15.1014 47.5865 14.2813 47.1647 13.4937L47.9389 12.7196C48.919 11.7395 48.919 10.1505 47.9389 9.17057L42.615 3.84665C41.6349 2.86657 40.0459 2.86657 39.066 3.84665L38.0676 4.84505C37.3471 4.5051 36.6023 4.20869 35.8379 3.95545V2.50955C35.8379 1.12351 34.7142 0 33.3283 0H25.7991C24.4131 0 23.2896 1.12351 23.2896 2.50955V3.95558C22.5251 4.20882 21.7803 4.50522 21.0599 4.84518L20.0615 3.84678C19.0814 2.8667 17.4924 2.8667 16.5125 3.84678L11.1886 9.1707C10.2085 10.1508 10.2085 11.7396 11.1886 12.7197L11.9627 13.4938C11.5409 14.2814 11.1725 15.1016 10.8577 15.9478H9.85135C8.46531 15.9478 7.3418 17.0713 7.3418 18.4573V25.9865C7.3418 27.3726 8.46531 28.4961 9.85135 28.4961H10.4073C10.7003 29.5002 11.069 30.4722 11.5087 31.404L11.1886 31.7242C10.2085 32.7043 10.2085 34.2932 11.1886 35.2732L16.5122 40.5968C17.4923 41.5769 19.0813 41.577 20.0615 40.5971L20.1574 40.5013C21.1536 41.0349 22.2013 41.4847 23.2897 41.8451V41.9343C23.2897 43.3203 24.4132 44.4439 25.7993 44.4439H33.3284C34.7145 44.4439 35.838 43.3203 35.838 41.9343V41.8451C36.9264 41.4847 37.974 41.0349 38.9703 40.5013L39.0662 40.5971C40.0464 41.577 41.6354 41.5769 42.6155 40.5968L47.6189 35.5934L47.619 31.404C48.0587 30.4722 48.4273 29.5002 48.7204 28.4961H49.2764C50.6624 28.4961 51.7859 27.3726 51.7859 25.9865V18.4573C51.7855 17.0713 50.6619 15.9477 49.276 15.9477ZM29.5637 30.922C25.1329 30.922 21.5419 27.331 21.5419 22.9002C21.5419 18.4694 25.133 14.8782 29.5637 14.8782C33.9944 14.8782 37.5856 18.4694 37.5856 22.9002C37.5856 27.331 33.9945 30.922 29.5637 30.922Z" fill="url(#paint0_linear)"/>
<path d="M29.563 8.29419C21.4954 8.29419 14.957 14.8327 14.957 22.9001C14.957 30.9675 21.4956 37.5061 29.563 37.5061C37.6304 37.5061 44.1689 30.9675 44.1689 22.9001C44.1689 14.8327 37.6304 8.29419 29.563 8.29419ZM29.563 30.9221C25.1322 30.9221 21.5411 27.3311 21.5411 22.9003C21.5411 18.4694 25.1323 14.8783 29.563 14.8783C33.9936 14.8783 37.5848 18.4694 37.5848 22.9003C37.5848 27.3311 33.9938 30.9221 29.563 30.9221Z" fill="url(#paint1_linear)"/>
<path d="M21.5419 22.9002C21.5419 19.9175 23.1705 17.3173 25.5859 15.9349L15.0051 5.35406L11.1886 9.1706C10.2085 10.1507 10.2085 11.7396 11.1886 12.7196L11.9627 13.4937C11.541 14.2813 11.1725 15.1014 10.8577 15.9477H9.85135C8.46531 15.9477 7.3418 17.0712 7.3418 18.4572V25.9864C7.3418 26.6738 7.61875 27.2963 8.0665 27.7495H23.1743C22.1506 26.4027 21.5419 24.7228 21.5419 22.9002Z" fill="url(#paint2_linear)"/>
<path d="M35.807 14.5356C30.2869 14.5356 25.8125 19.0114 25.8125 24.5302C25.8125 30.0504 30.2869 34.5247 35.807 34.5247C41.3259 34.5247 45.8002 30.0504 45.8002 24.5302C45.8003 19.0114 41.3259 14.5356 35.807 14.5356ZM35.807 22.0135C37.196 22.0135 38.3238 23.1399 38.3238 24.5302C38.3238 25.9205 37.196 27.0469 35.807 27.0469C34.4167 27.0469 33.2903 25.9205 33.2903 24.5302C33.2903 23.1399 34.4167 22.0135 35.807 22.0135Z" fill="url(#paint3_linear)"/>
<path d="M35.8064 17.2083C31.7626 17.2083 28.4844 20.4864 28.4844 24.5302C28.4844 28.574 31.7626 31.8522 35.8064 31.8522C39.8501 31.8522 43.1283 28.574 43.1283 24.5302C43.1283 20.4864 39.8501 17.2083 35.8064 17.2083ZM35.8064 27.0471C34.416 27.0471 33.2896 25.9207 33.2896 24.5303C33.2896 23.14 34.416 22.0136 35.8064 22.0136C37.1953 22.0136 38.3231 23.14 38.3231 24.5303C38.3232 25.9205 37.1953 27.0471 35.8064 27.0471Z" fill="url(#paint4_linear)"/>
<path d="M35.8079 19.6675C33.1217 19.6675 30.9453 21.8453 30.9453 24.5302C30.9453 27.2164 33.1217 29.3928 35.8079 29.3928C38.4928 29.3928 40.6705 27.2164 40.6705 24.5302C40.6705 21.8453 38.4929 19.6675 35.8079 19.6675ZM35.8079 27.047C34.4176 27.047 33.2912 25.9206 33.2912 24.5303C33.2912 23.14 34.4176 22.0136 35.8079 22.0136C37.1969 22.0136 38.3246 23.14 38.3246 24.5303C38.3248 25.9205 37.1969 27.047 35.8079 27.047Z" fill="url(#paint5_linear)"/>
<path d="M48.1024 12.5397L40.6699 5.10712V27.7496H51.0616C51.5094 27.2963 51.7863 26.6739 51.7863 25.9864V18.4573C51.7863 17.0712 50.6628 15.9477 49.2768 15.9477H48.2706C47.9559 15.1014 47.5873 14.2813 47.1655 13.4938L47.9397 12.7196C47.9977 12.6618 48.0515 12.6015 48.1024 12.5397Z" fill="url(#paint6_linear)"/>
<path d="M34.9766 15.6101L38.764 7.60836L40.2134 6.45171C40.4469 5.95829 42.0117 7.60836 42.0117 7.60836L45.7991 15.6101C45.799 18.6076 34.9766 18.6076 34.9766 15.6101Z" fill="url(#paint7_linear)"/>
<path d="M45.7991 26.271L45.7981 15.6099C45.3932 15.7186 44.9409 15.7205 44.4915 15.5931C43.8793 15.4173 43.3824 14.6815 43.0852 14.1255C43.02 14.005 42.8866 13.9685 42.778 14.0079C42.7118 14.0306 42.6535 14.0809 42.6239 14.158C42.6249 14.159 42.6239 14.16 42.6239 14.16C42.5932 14.238 42.5587 14.3141 42.5211 14.3871C42.5023 14.4216 42.4836 14.4563 42.4647 14.4908C42.4637 14.4938 42.4627 14.4947 42.4608 14.4967C42.3976 14.6053 42.3275 14.707 42.2485 14.8039C42.2228 14.8355 42.1952 14.8671 42.1686 14.8977C42.1234 14.9479 42.0761 14.9961 42.0268 15.0422C41.6821 15.3652 41.2415 15.5877 40.7523 15.6621C40.6328 15.6809 40.5114 15.6897 40.3869 15.6897C40.2624 15.6897 40.1409 15.6808 40.0214 15.6621C39.4625 15.5771 38.9667 15.2987 38.6053 14.8977C38.5786 14.8671 38.551 14.8355 38.5254 14.8039C38.4463 14.7071 38.3753 14.6043 38.313 14.4967C38.311 14.4947 38.31 14.4937 38.309 14.4908C38.2902 14.4563 38.2715 14.4216 38.2527 14.3871C38.233 14.3496 38.2151 14.3121 38.1983 14.2735C38.1815 14.237 38.1657 14.1995 38.1509 14.161C38.1499 14.16 38.1499 14.16 38.1499 14.158C38.1203 14.0809 38.062 14.0306 37.9958 14.0079C37.8871 13.9684 37.7538 14.0049 37.6886 14.1255C37.3913 14.6815 36.8956 15.4163 36.2832 15.5921C35.8328 15.7205 35.3816 15.7194 34.9756 15.6099L34.9746 26.271C34.9756 27.0877 35.6373 27.7494 36.453 27.7494H37.9957H42.7776H44.3202C45.1364 27.7494 45.7981 27.0877 45.7991 26.271Z" fill="url(#paint8_linear)"/>
<path d="M42.778 27.7495V14.0081C42.7119 14.0308 42.6535 14.0812 42.6239 14.1582C42.6249 14.1592 42.6239 14.1602 42.6239 14.1602C42.5933 14.2383 42.3276 14.7094 42.2486 14.8041C42.2228 14.8377 42.1962 14.8684 42.1686 14.898C41.8072 15.2989 41.3114 15.5774 40.7525 15.6623C40.633 15.6812 40.5115 15.6899 40.3871 15.6899C40.2626 15.6899 40.1411 15.681 40.0216 15.6623C39.4627 15.5774 38.9669 15.2989 38.6055 14.898C38.5779 14.8684 38.5511 14.8377 38.5255 14.8041C38.4465 14.7094 38.3755 14.6066 38.3132 14.4969C38.3112 14.4949 38.3102 14.4939 38.3092 14.491C38.2895 14.4574 38.166 14.1996 38.1512 14.1611C38.1502 14.1601 38.1502 14.1601 38.1502 14.1581C38.1206 14.081 38.0624 14.0307 37.9961 14.008V27.7495H42.778Z" fill="url(#paint9_linear)"/>
<path d="M40.3875 7.86068C39.8189 7.86068 39.2732 7.77108 38.7637 7.60819L39.803 5.41249C40.0365 4.91906 40.7385 4.91906 40.972 5.41249L42.0113 7.60819C41.5019 7.77108 40.9561 7.86068 40.3875 7.86068Z" fill="url(#paint10_linear)"/>
<path d="M0.630859 43.6354V39.4507C0.630859 36.8475 2.7411 34.7372 5.3444 34.7372C7.94757 34.7372 10.0579 36.8474 10.0579 39.4507V43.6354C10.0579 46.2386 7.94769 48.349 5.3444 48.349C2.74123 48.349 0.630859 46.2386 0.630859 43.6354Z" fill="url(#paint11_linear)"/>
<path d="M42.5039 43.6354V39.4507C42.5039 36.8475 44.6142 34.7372 47.2175 34.7372C49.8206 34.7372 51.931 36.8474 51.931 39.4507V43.6354C51.931 46.2386 49.8207 48.349 47.2175 48.349C44.6143 48.349 42.5039 46.2386 42.5039 43.6354Z" fill="url(#paint12_linear)"/>
<path d="M48.1438 33.6129V42.1392C48.1438 43.993 47.9128 45.7934 47.4795 47.5131C45.0844 56.9884 36.502 64 26.2818 64C16.0616 64 7.47937 56.9884 5.08565 47.5132C4.65095 45.7935 4.41992 43.9931 4.41992 42.1394V33.6131C4.41992 30.3718 5.1253 27.2959 6.39125 24.5303H46.1728C47.4385 27.2958 48.1438 30.3717 48.1438 33.6129Z" fill="url(#paint13_linear)"/>
<path d="M48.144 33.6129V42.1392C48.144 43.993 47.9129 45.7934 47.4769 47.5131C45.5424 55.17 39.5643 61.2193 31.9485 63.2576L16.2041 47.5132L4.41992 35.7292V33.6129C4.41992 30.3717 5.1253 27.2958 6.39125 24.5302H46.1728C47.4386 27.2958 48.144 30.3717 48.144 33.6129Z" fill="url(#paint14_linear)"/>
<path d="M49.8094 24.5302C51.1537 24.5302 52.1149 25.8505 51.68 27.1225C49.6297 33.1184 43.9464 37.4298 37.258 37.4298H23.9181C21.0678 37.4298 18.4021 36.6465 16.1204 35.285C15.2756 35.9562 14.32 36.4921 13.2837 36.8612C12.2341 37.2337 11.1031 37.4351 9.92486 37.4298C4.45299 37.4054 0.0683594 32.8725 0.0683594 27.4007V26.5009C0.0683594 25.4127 0.950555 24.5303 2.03893 24.5303H49.8094V24.5302Z" fill="url(#paint15_linear)"/>
<path d="M16.1204 35.2848C15.2756 35.9561 14.32 36.4919 13.2837 36.8611C12.2341 37.2336 11.1031 37.435 9.92486 37.4297C4.45299 37.4052 0.0683594 32.8724 0.0683594 27.4005V26.5008C0.0683594 25.4125 0.950555 24.5302 2.03893 24.5302H8.85857C9.56408 29.1031 12.3023 33.0059 16.1204 35.2848Z" fill="url(#paint16_linear)"/>
<path d="M19.76 45.9037C19.76 47.6431 18.3499 49.0532 16.6105 49.0532C14.8711 49.0532 13.4609 47.6431 13.4609 45.9037C13.4609 44.1642 14.8711 42.7541 16.6105 42.7541C18.3499 42.7541 19.76 44.1641 19.76 45.9037Z" fill="url(#paint17_linear)"/>
<path d="M18.0192 43.0863C18.2317 43.5102 18.3514 43.9887 18.3514 44.4952C18.3514 46.2346 16.9413 47.6447 15.2018 47.6447C14.6954 47.6447 14.2169 47.525 13.793 47.3126C14.31 48.3446 15.3774 49.0532 16.6103 49.0532C18.3498 49.0532 19.7599 47.6431 19.7599 45.9037C19.7599 44.6706 19.0513 43.6033 18.0192 43.0863Z" fill="url(#paint18_linear)"/>
<path d="M39.1018 45.9037C39.1018 47.6431 37.6917 49.0532 35.9523 49.0532C34.2129 49.0532 32.8027 47.6431 32.8027 45.9037C32.8027 44.1642 34.2129 42.7541 35.9523 42.7541C37.6918 42.7541 39.1018 44.1641 39.1018 45.9037Z" fill="url(#paint19_linear)"/>
<path d="M37.361 43.0863C37.5735 43.5102 37.6932 43.9887 37.6932 44.4952C37.6932 46.2346 36.2831 47.6447 34.5436 47.6447C34.0372 47.6447 33.5587 47.525 33.1348 47.3126C33.6519 48.3446 34.7192 49.0532 35.9521 49.0532C37.6916 49.0532 39.1017 47.6431 39.1017 45.9037C39.1017 44.6706 38.3932 43.6033 37.361 43.0863Z" fill="url(#paint20_linear)"/>
<path d="M30.62 55.1237C27.8708 53.8403 24.6943 53.8403 21.945 55.1237C21.2339 55.4556 20.9159 56.2957 21.2359 57.0123C21.9682 58.6523 23.5538 61.2311 26.2826 61.2311C29.0114 61.2311 30.5968 58.6523 31.3293 57.0123C31.6492 56.2957 31.3312 55.4556 30.62 55.1237Z" fill="url(#paint21_linear)"/>
<path d="M26.2823 52.3794C27.8427 52.3794 29.1076 51.2902 29.1076 49.9466C29.1076 48.603 27.8427 47.5139 26.2823 47.5139C24.722 47.5139 23.457 48.603 23.457 49.9466C23.457 51.2902 24.722 52.3794 26.2823 52.3794Z" fill="url(#paint22_linear)"/>
<path d="M15.3169 7.6243C15.3169 3.40858 11.8954 -0.00801724 7.67784 1.41305e-05C3.47078 0.00792001 0.0438949 3.46267 0.068491 7.66972C0.0826713 10.0951 1.22928 12.2521 3.00634 13.6388C3.4699 14.0005 3.74134 14.5551 3.74134 15.1432C3.74134 16.4104 4.7686 17.4378 6.03593 17.4378H9.3495C10.6167 17.4378 11.6441 16.4105 11.6441 15.1432V15.143C11.6441 14.5556 11.9149 14.001 12.3781 13.6397C14.1667 12.2443 15.3169 10.0687 15.3169 7.6243Z" fill="url(#paint23_linear)"/>
<path d="M1.33203 11.8292C1.78907 12.5192 2.35503 13.1308 3.00594 13.6388C3.4695 14.0005 3.74094 14.5551 3.74094 15.1432C3.74094 16.4104 4.7682 17.4378 6.03553 17.4378H9.34909C10.6163 17.4378 11.6437 16.4105 11.6437 15.1432V15.143C11.6437 14.5556 11.9145 14.001 12.3777 13.6397C13.0291 13.1316 13.5952 12.5197 14.0526 11.8292H1.33203Z" fill="url(#paint24_linear)"/>
<path d="M7.691 14.7291C11.5568 14.7291 14.6906 11.5953 14.6906 7.72951C14.6906 3.86374 11.5568 0.729919 7.691 0.729919C3.82523 0.729919 0.691406 3.86374 0.691406 7.72951C0.691406 11.5953 3.82523 14.7291 7.691 14.7291Z" fill="url(#paint25_linear)"/>
<path d="M7.69154 21.3654C5.50927 21.3654 3.74023 19.5964 3.74023 17.4141V16.396H11.6429V17.4141C11.6429 19.5964 9.87382 21.3654 7.69154 21.3654Z" fill="url(#paint26_linear)"/>
<path d="M3.45508 16.0248V16.9016C3.45508 17.1022 3.66289 17.273 3.947 17.3077C5.04981 17.4418 6.32792 17.5185 7.691 17.5185C9.05395 17.5185 10.3322 17.4418 11.435 17.3077C11.7191 17.2732 11.9269 17.1022 11.9269 16.9016V16.0248C11.9269 15.7711 11.6003 15.5774 11.2401 15.6183C10.1827 15.7383 8.97464 15.8064 7.691 15.8064C6.40736 15.8064 5.19927 15.7383 4.14189 15.6183C3.78173 15.5774 3.45508 15.7709 3.45508 16.0248Z" fill="url(#paint27_linear)"/>
<path d="M3.45508 18.1564V19.0332C3.45508 19.2339 3.66289 19.4047 3.947 19.4393C5.04981 19.5735 6.32792 19.6502 7.691 19.6502C9.05395 19.6502 10.3322 19.5735 11.435 19.4393C11.7191 19.4048 11.9269 19.2339 11.9269 19.0332V18.1564C11.9269 17.9027 11.6003 17.7091 11.2401 17.75C10.1827 17.8699 8.97464 17.9381 7.691 17.9381C6.40736 17.9381 5.19927 17.8699 4.14189 17.75C3.78173 17.7091 3.45508 17.9027 3.45508 18.1564Z" fill="url(#paint28_linear)"/>
<defs>
<linearGradient id="paint0_linear" x1="13.577" y1="6.23523" x2="47.7603" y2="40.4185" gradientUnits="userSpaceOnUse">
<stop stop-color="#7ACBFF"/>
<stop offset="1" stop-color="#45A2E0"/>
</linearGradient>
<linearGradient id="paint1_linear" x1="40.0709" y1="33.4082" x2="17.6022" y2="10.9395" gradientUnits="userSpaceOnUse">
<stop stop-color="#7ACBFF"/>
<stop offset="1" stop-color="#45A2E0"/>
</linearGradient>
<linearGradient id="paint2_linear" x1="17.384" y1="21.2525" x2="6.58421" y2="12.5716" gradientUnits="userSpaceOnUse">
<stop stop-color="#2F73A0" stop-opacity="0"/>
<stop offset="1" stop-color="#2F73A0"/>
</linearGradient>
<linearGradient id="paint3_linear" x1="29.135" y1="17.8589" x2="30.9466" y2="19.6705" gradientUnits="userSpaceOnUse">
<stop stop-color="#FF755C"/>
<stop offset="1" stop-color="#FF4181"/>
</linearGradient>
<linearGradient id="paint4_linear" x1="30.7752" y1="19.4989" x2="33.121" y2="21.8447" gradientUnits="userSpaceOnUse">
<stop stop-color="#FFCE47"/>
<stop offset="1" stop-color="#FF9356"/>
</linearGradient>
<linearGradient id="paint5_linear" x1="31.8929" y1="20.6156" x2="34.3796" y2="23.1023" gradientUnits="userSpaceOnUse">
<stop stop-color="#E4E08E"/>
<stop offset="1" stop-color="#6FA953"/>
</linearGradient>
<linearGradient id="paint6_linear" x1="50.6547" y1="15.0397" x2="43.8193" y2="17.0219" gradientUnits="userSpaceOnUse">
<stop stop-color="#2F73A0" stop-opacity="0"/>
<stop offset="1" stop-color="#2F73A0"/>
</linearGradient>
<linearGradient id="paint7_linear" x1="34.9766" y1="12.1108" x2="45.7991" y2="12.1108" gradientUnits="userSpaceOnUse">
<stop stop-color="#FFE0EA"/>
<stop offset="1" stop-color="#FFC0D5"/>
</linearGradient>
<linearGradient id="paint8_linear" x1="34.8788" y1="15.7025" x2="45.9251" y2="26.7488" gradientUnits="userSpaceOnUse">
<stop stop-color="#FFCE47"/>
<stop offset="1" stop-color="#FF9356"/>
</linearGradient>
<linearGradient id="paint9_linear" x1="44.8917" y1="20.8577" x2="33.9681" y2="20.8577" gradientUnits="userSpaceOnUse">
<stop stop-color="#FFCE47"/>
<stop offset="1" stop-color="#FF9356"/>
</linearGradient>
<linearGradient id="paint10_linear" x1="40.0609" y1="6.45343" x2="42.8223" y2="6.45343" gradientUnits="userSpaceOnUse">
<stop stop-color="#2F73A0"/>
<stop offset="1" stop-color="#174461"/>
</linearGradient>
<linearGradient id="paint11_linear" x1="3.94368" y1="38.4017" x2="9.13909" y2="50.0534" gradientUnits="userSpaceOnUse">
<stop stop-color="#FFDECF"/>
<stop offset="1" stop-color="#FAA68E"/>
</linearGradient>
<linearGradient id="paint12_linear" x1="45.8167" y1="38.4017" x2="51.0121" y2="50.0534" gradientUnits="userSpaceOnUse">
<stop stop-color="#FFDECF"/>
<stop offset="1" stop-color="#FAA68E"/>
</linearGradient>
<linearGradient id="paint13_linear" x1="24.9526" y1="37.5188" x2="46.6081" y2="59.1743" gradientUnits="userSpaceOnUse">
<stop stop-color="#FFDECF"/>
<stop offset="1" stop-color="#FAA68E"/>
</linearGradient>
<linearGradient id="paint14_linear" x1="27.2004" y1="44.3209" x2="25.4688" y2="25.1821" gradientUnits="userSpaceOnUse">
<stop stop-color="#FF9356" stop-opacity="0"/>
<stop offset="1" stop-color="#FF4181"/>
</linearGradient>
<linearGradient id="paint15_linear" x1="24.6279" y1="24.1647" x2="32.4207" y2="45.251" gradientUnits="userSpaceOnUse">
<stop stop-color="#5A7587"/>
<stop offset="1" stop-color="#092A40"/>
</linearGradient>
<linearGradient id="paint16_linear" x1="8.58074" y1="31.7679" x2="18.9512" y2="40.4432" gradientUnits="userSpaceOnUse">
<stop stop-color="#092A40" stop-opacity="0"/>
<stop offset="1" stop-color="#092A40"/>
</linearGradient>
<linearGradient id="paint17_linear" x1="15.4321" y1="44.7252" x2="19.5112" y2="48.8043" gradientUnits="userSpaceOnUse">
<stop stop-color="#5A7587"/>
<stop offset="1" stop-color="#092A40"/>
</linearGradient>
<linearGradient id="paint18_linear" x1="16.7198" y1="47.1107" x2="21.0489" y2="39.0591" gradientUnits="userSpaceOnUse">
<stop stop-color="#092A40" stop-opacity="0"/>
<stop offset="1" stop-color="#092A40"/>
</linearGradient>
<linearGradient id="paint19_linear" x1="34.7739" y1="44.7252" x2="38.8531" y2="48.8044" gradientUnits="userSpaceOnUse">
<stop stop-color="#5A7587"/>
<stop offset="1" stop-color="#092A40"/>
</linearGradient>
<linearGradient id="paint20_linear" x1="36.0616" y1="47.1107" x2="40.3907" y2="39.0591" gradientUnits="userSpaceOnUse">
<stop stop-color="#092A40" stop-opacity="0"/>
<stop offset="1" stop-color="#092A40"/>
</linearGradient>
<linearGradient id="paint21_linear" x1="25.4585" y1="55.0909" x2="28.6917" y2="60.5875" gradientUnits="userSpaceOnUse">
<stop stop-color="#FF755C"/>
<stop offset="1" stop-color="#FF4181"/>
</linearGradient>
<linearGradient id="paint22_linear" x1="26.2823" y1="50.9322" x2="26.2823" y2="43.2068" gradientUnits="userSpaceOnUse">
<stop stop-color="#FF9356" stop-opacity="0"/>
<stop offset="1" stop-color="#FF4181"/>
</linearGradient>
<linearGradient id="paint23_linear" x1="4.3787" y1="5.12955" x2="11.7536" y2="12.5044" gradientUnits="userSpaceOnUse">
<stop stop-color="#FFEBB4"/>
<stop offset="1" stop-color="#FFCE47"/>
</linearGradient>
<linearGradient id="paint24_linear" x1="7.69225" y1="13.0791" x2="7.69225" y2="16.69" gradientUnits="userSpaceOnUse">
<stop stop-color="#FF9356" stop-opacity="0"/>
<stop offset="1" stop-color="#FF755C"/>
</linearGradient>
<linearGradient id="paint25_linear" x1="8.41357" y1="9.18507" x2="4.91214" y2="2.13164" gradientUnits="userSpaceOnUse">
<stop stop-color="#FFEBB4" stop-opacity="0"/>
<stop offset="1" stop-color="#FFF5D9"/>
</linearGradient>
<linearGradient id="paint26_linear" x1="6.31291" y1="15.6746" x2="9.8289" y2="20.4641" gradientUnits="userSpaceOnUse">
<stop stop-color="#45A2E0"/>
<stop offset="1" stop-color="#2F73A0"/>
</linearGradient>
<linearGradient id="paint27_linear" x1="7.691" y1="15.9647" x2="7.691" y2="17.3577" gradientUnits="userSpaceOnUse">
<stop stop-color="#C7E9FF"/>
<stop offset="1" stop-color="#7ACBFF"/>
</linearGradient>
<linearGradient id="paint28_linear" x1="7.691" y1="18.0963" x2="7.691" y2="19.4894" gradientUnits="userSpaceOnUse">
<stop stop-color="#C7E9FF"/>
<stop offset="1" stop-color="#7ACBFF"/>
</linearGradient>
</defs>
</svg>
