<svg width="160" height="114" viewBox="0 0 160 114" fill="none" xmlns="http://www.w3.org/2000/svg">
<path d="M16.7098 0.901947C16.9974 0.59371 17.4001 0.418701 17.8217 0.418701H74.361C75.2009 0.418701 75.8817 1.09954 75.8817 1.9394V28.702C75.8817 29.5418 75.2009 30.2226 74.361 30.2226H38.7937C38.3689 30.2226 37.9634 30.4004 37.6755 30.7128L34.3513 34.3197C34.0925 34.6005 33.9488 34.9684 33.9488 35.3503V78.9056C33.9488 79.2875 34.0925 79.6554 34.3513 79.9362L37.6755 83.5431C37.9634 83.8555 38.3689 84.0333 38.7937 84.0333H74.361C75.2009 84.0333 75.8817 84.7141 75.8817 85.554V112.317C75.8817 113.156 75.2009 113.837 74.361 113.837H17.8217C17.4001 113.837 16.9974 113.662 16.7098 113.354L1.26495 96.8014C0.739493 96.2383 0.447266 95.4968 0.447266 94.7265V19.5294C0.447266 18.7592 0.739494 18.0176 1.26495 17.4545L16.7098 0.901947Z" fill="white"/>
<path d="M16.7098 0.901947C16.9974 0.59371 17.4001 0.418701 17.8217 0.418701H74.361C75.2009 0.418701 75.8817 1.09954 75.8817 1.9394V28.702C75.8817 29.5418 75.2009 30.2226 74.361 30.2226H38.7937C38.3689 30.2226 37.9634 30.4004 37.6755 30.7128L34.3513 34.3197C34.0925 34.6005 33.9488 34.9684 33.9488 35.3503V78.9056C33.9488 79.2875 34.0925 79.6554 34.3513 79.9362L37.6755 83.5431C37.9634 83.8555 38.3689 84.0333 38.7937 84.0333H74.361C75.2009 84.0333 75.8817 84.7141 75.8817 85.554V112.317C75.8817 113.156 75.2009 113.837 74.361 113.837H17.8217C17.4001 113.837 16.9974 113.662 16.7098 113.354L1.26495 96.8014C0.739493 96.2383 0.447266 95.4968 0.447266 94.7265V19.5294C0.447266 18.7592 0.739494 18.0176 1.26495 17.4545L16.7098 0.901947Z" fill="#3B38F1"/>
<path d="M143.545 0.901947C143.257 0.59371 142.855 0.418701 142.433 0.418701H85.8937C85.0538 0.418701 84.373 1.09954 84.373 1.9394V28.702C84.373 29.5418 85.0538 30.2226 85.8937 30.2226H121.461C121.886 30.2226 122.291 30.4004 122.579 30.7128L125.903 34.3197C126.162 34.6005 126.306 34.9684 126.306 35.3503V78.9056C126.306 79.2875 126.162 79.6554 125.903 79.9362L122.579 83.5431C122.291 83.8555 121.886 84.0333 121.461 84.0333H85.8937C85.0538 84.0333 84.373 84.7141 84.373 85.554V112.317C84.373 113.156 85.0538 113.837 85.8937 113.837H142.433C142.855 113.837 143.257 113.662 143.545 113.354L158.99 96.8014C159.515 96.2383 159.807 95.4968 159.807 94.7265V19.5294C159.807 18.7592 159.515 18.0176 158.99 17.4545L143.545 0.901947Z" fill="white"/>
<path d="M143.545 0.901947C143.257 0.59371 142.855 0.418701 142.433 0.418701H85.8937C85.0538 0.418701 84.373 1.09954 84.373 1.9394V28.702C84.373 29.5418 85.0538 30.2226 85.8937 30.2226H121.461C121.886 30.2226 122.291 30.4004 122.579 30.7128L125.903 34.3197C126.162 34.6005 126.306 34.9684 126.306 35.3503V78.9056C126.306 79.2875 126.162 79.6554 125.903 79.9362L122.579 83.5431C122.291 83.8555 121.886 84.0333 121.461 84.0333H85.8937C85.0538 84.0333 84.373 84.7141 84.373 85.554V112.317C84.373 113.156 85.0538 113.837 85.8937 113.837H142.433C142.855 113.837 143.257 113.662 143.545 113.354L158.99 96.8014C159.515 96.2383 159.807 95.4968 159.807 94.7265V19.5294C159.807 18.7592 159.515 18.0176 158.99 17.4545L143.545 0.901947Z" fill="#3B38F1"/>
</svg>
